# Blender v2.80 (sub 75) OBJ File: 'wizard_lab_blocks.blend'
# www.blender.org
mtllib scribes_bench_main.mtl
o SCRIBES_MAIN_Cube.020
v 0.062500 1.000000 0.937500
v 0.062500 1.000000 0.812500
v 0.125000 1.187500 0.937500
v 0.125000 1.187500 0.812500
v 0.562500 1.187500 0.812500
v 0.562500 1.187500 0.937500
v 0.562500 1.000000 0.812500
v 0.562500 1.000000 0.937500
v 0.562500 1.125000 0.937500
v 0.562500 1.125000 0.812500
v 0.062500 1.125000 0.812500
v 0.062500 1.125000 0.937500
v 0.937500 1.125000 0.812500
v 0.937500 1.125000 0.937500
v 0.875000 1.187500 0.937500
v 0.937500 1.000000 0.937500
v 0.875000 1.187500 0.812500
v 0.937500 1.000000 0.812500
v 0.437500 1.125000 0.812500
v 0.437500 1.125000 0.937500
v 0.437500 1.000000 0.937500
v 0.437500 1.000000 0.812500
v 0.437500 1.187500 0.937500
v 0.437500 1.187500 0.812500
v 0.875000 1.000000 0.812500
v 0.875000 1.000000 0.250000
v 0.875000 1.062500 0.250000
v 0.875000 1.187500 0.812500
v 0.875000 1.062500 0.812500
v 0.562500 1.000000 0.250000
v 0.562500 1.062500 0.250000
v 0.562500 1.187500 0.812500
v 0.125000 1.000000 0.812500
v 0.125000 1.000000 0.250000
v 0.125000 1.062500 0.250000
v 0.125000 1.187500 0.812500
v 0.125000 1.062500 0.812500
v 0.437500 1.000000 0.250000
v 0.437500 1.062500 0.250000
v 0.437500 1.187500 0.812500
v 0.718750 1.187500 0.906250
v 0.718750 1.375000 0.906250
v 0.718750 1.187500 0.843750
v 0.718750 1.375000 0.843750
v 0.781250 1.187500 0.906250
v 0.781250 1.375000 0.906250
v 0.781250 1.187500 0.843750
v 0.781250 1.375000 0.843750
v 0.843750 1.312500 0.875000
v 0.843750 1.250000 0.812500
v 0.843750 1.312500 0.812500
v 0.156250 1.312500 0.812500
v 0.156250 1.312500 0.875000
v 0.843750 1.250000 0.875000
v 0.156250 1.250000 0.812500
v 0.156250 1.250000 0.875000
v 0.281250 1.187500 0.906250
v 0.281250 1.375000 0.906250
v 0.281250 1.187500 0.843750
v 0.281250 1.375000 0.843750
v 0.218750 1.187500 0.906250
v 0.218750 1.375000 0.906250
v 0.218750 1.187500 0.843750
v 0.218750 1.375000 0.843750
v 0.531250 1.312500 0.875000
v 0.531250 1.312500 0.812500
v 0.531250 1.250000 0.875000
v 0.531250 1.250000 0.812500
v 0.875000 1.015625 0.125000
v 0.937500 1.000000 0.187500
v 0.937500 1.062500 0.187500
v 0.812500 1.000000 0.187500
v 0.812500 1.062500 0.187500
v 0.812500 1.000000 0.062500
v 0.812500 1.062500 0.062500
v 0.937500 1.000000 0.062500
v 0.937500 1.062500 0.062500
v 0.187500 1.062500 0.062500
v 0.187500 1.000000 0.062500
v 0.062500 1.062500 0.062500
v 0.062500 1.000000 0.062500
v 0.062500 1.062500 0.187500
v 0.062500 1.000000 0.187500
v 0.187500 1.062500 0.187500
v 0.187500 1.000000 0.187500
v 0.125000 1.015625 0.125000
vt 0.375000 0.125000
vt 0.750000 0.125000
vt 0.750000 0.000000
vt 0.375000 0.000000
vt 0.750000 0.312500
vt 0.750000 0.375000
vt 0.625000 0.375000
vt 0.625000 0.312500
vt 0.312500 0.187500
vt 0.625000 0.187500
vt 0.625000 0.312500
vt 0.312500 0.312500
vt 0.750000 0.187500
vt 0.625000 0.187500
vt 0.375000 0.187500
vt 0.687500 0.187500
vt 0.062500 0.187500
vt 0.375000 0.187500
vt 0.375000 0.125000
vt -0.000000 0.125000
vt -0.000000 0.187500
vt 0.312500 0.187500
vt 0.312500 0.312500
vt -0.000000 0.312500
vt 0.375000 0.000000
vt -0.000000 0.000000
vt 0.375000 0.000000
vt 0.375000 0.125000
vt -0.000000 0.125000
vt -0.000000 0.000000
vt 0.625000 0.187500
vt 0.625000 0.312500
vt 0.750000 0.312500
vt 0.750000 0.187500
vt 0.625000 0.375000
vt 0.750000 0.375000
vt 0.375000 0.187500
vt 0.062500 0.187500
vt 0.750000 0.125000
vt 0.687500 0.187500
vt 0.375000 0.187500
vt 0.375000 0.125000
vt 0.250000 0.312500
vt 0.250000 0.187500
vt 0.375000 0.312500
vt 0.750000 0.000000
vt 0.375000 0.000000
vt 0.625000 0.625000
vt 0.062500 0.625000
vt 0.062500 0.312500
vt 0.625000 0.312500
vt 0.312500 0.687500
vt -0.000000 0.687500
vt -0.000000 0.625000
vt 0.312500 0.625000
vt -0.000000 0.812500
vt -0.000000 0.687500
vt 0.562500 0.687500
vt 0.625000 0.687500
vt 0.062500 0.687500
vt 0.062500 0.625000
vt 0.625000 0.625000
vt 0.625000 0.625000
vt 0.625000 0.312500
vt 0.062500 0.312500
vt 0.062500 0.625000
vt 0.312500 0.687500
vt 0.312500 0.625000
vt -0.000000 0.625000
vt -0.000000 0.687500
vt -0.000000 0.812500
vt 0.562500 0.687500
vt -0.000000 0.687500
vt 0.625000 0.687500
vt 0.625000 0.625000
vt 0.062500 0.625000
vt 0.062500 0.687500
vt 0.062500 0.562500
vt 0.625000 0.562500
vt 0.250000 0.625000
vt 0.375000 0.625000
vt 0.375000 0.687500
vt 0.250000 0.687500
vt 0.125000 0.937500
vt 0.312500 0.937500
vt 0.312500 1.000000
vt 0.125000 1.000000
vt 0.125000 0.875000
vt 0.312500 0.875000
vt 0.312500 0.937500
vt 0.125000 0.937500
vt 0.312500 1.000000
vt 0.125000 1.000000
vt 0.125000 0.875000
vt 0.312500 0.875000
vt 0.375000 0.875000
vt 0.375000 0.937500
vt 1.000000 0.937500
vt 0.937500 0.937500
vt 0.937500 0.875000
vt 1.000000 0.875000
vt 0.125000 0.937500
vt 0.125000 1.000000
vt 0.312500 1.000000
vt 0.312500 0.937500
vt 0.125000 0.875000
vt 0.125000 0.937500
vt 0.312500 0.937500
vt 0.312500 0.875000
vt 0.125000 1.000000
vt 0.312500 1.000000
vt 0.125000 0.875000
vt 0.312500 0.875000
vt 0.375000 0.937500
vt 0.375000 0.875000
vt 0.250000 0.937500
vt 0.562500 0.937500
vt 0.562500 1.000000
vt 0.250000 1.000000
vt 0.187500 0.937500
vt 0.187500 1.000000
vt 0.187500 0.875000
vt 0.187500 0.937500
vt 0.562500 0.937500
vt 0.562500 0.875000
vt 0.250000 0.937500
vt 0.250000 0.875000
vt 0.250000 0.937500
vt 0.562500 0.937500
vt 0.562500 0.875000
vt 0.250000 0.875000
vt 0.187500 0.937500
vt 0.187500 0.875000
vt 0.250000 1.000000
vt 0.562500 1.000000
vt 0.937500 0.937500
vt 0.937500 0.875000
vt 1.000000 0.875000
vt 1.000000 0.937500
vt 0.187500 1.000000
vt 0.750000 0.687500
vt 0.875000 0.687500
vt 0.812500 0.750000
vt 1.000000 0.687500
vt 0.875000 0.687500
vt 0.937500 0.750000
vt 0.875000 0.687500
vt 0.750000 0.687500
vt 0.875000 0.687500
vt 1.000000 0.687500
vt 1.000000 0.750000
vt 0.875000 0.750000
vt 0.750000 0.687500
vt 0.875000 0.687500
vt 0.875000 0.750000
vt 0.750000 0.750000
vt 0.750000 0.687500
vt 0.750000 0.750000
vt 0.875000 0.687500
vt 0.875000 0.750000
vt 1.000000 0.687500
vt 0.875000 0.687500
vt 0.875000 0.750000
vt 1.000000 0.750000
vt 0.875000 0.687500
vt 0.750000 0.687500
vt 0.750000 0.750000
vt 0.875000 0.750000
vt 0.750000 0.687500
vt 0.750000 0.750000
vt 0.875000 0.687500
vt 0.875000 0.750000
vt 0.875000 0.687500
vt 0.750000 0.687500
vt 0.812500 0.750000
vt 0.875000 0.687500
vt 1.000000 0.687500
vt 0.937500 0.750000
vt 0.875000 0.687500
vt 0.750000 0.687500
vn 0.0000 0.0000 1.0000
vn -0.7071 0.7071 0.0000
vn 0.0000 1.0000 0.0000
vn -1.0000 0.0000 0.0000
vn 0.0000 0.0000 -1.0000
vn 1.0000 0.0000 0.0000
vn 0.7071 0.7071 0.0000
vn 0.0000 0.9762 -0.2169
vn 0.0000 -1.0000 0.0000
vn 0.0000 0.8000 -0.6000
vn 0.6000 0.8000 0.0000
vn 0.0000 0.8000 0.6000
vn -0.6000 0.8000 0.0000
usemtl THESIS_DESK
s off
f 20/1/1 12/2/1 1/3/1 21/4/1
f 12/5/2 3/6/2 4/7/2 11/8/2
f 24/9/3 4/10/3 3/11/3 23/12/3
f 1/13/4 12/5/4 11/8/4 2/14/4
f 23/15/1 3/16/1 12/2/1 20/1/1
f 15/17/1 6/18/1 9/19/1 14/20/1
f 17/21/3 5/22/3 6/23/3 15/24/3
f 14/20/1 9/19/1 8/25/1 16/26/1
f 7/27/5 10/28/5 13/29/5 18/30/5
f 18/31/6 13/32/6 14/33/6 16/34/6
f 13/32/7 17/35/7 15/36/7 14/33/7
f 10/28/5 5/37/5 17/38/5 13/29/5
f 11/39/5 4/40/5 24/41/5 19/42/5
f 6/43/3 5/44/3 24/41/3 23/45/3
f 9/19/1 6/18/1 23/15/1 20/1/1
f 8/25/1 9/19/1 20/1/1 21/4/1
f 2/46/5 11/39/5 19/42/5 22/47/5
f 31/48/8 32/49/8 28/50/8 27/51/8
f 31/52/5 27/53/5 26/54/5 30/55/5
f 28/56/6 29/57/6 27/58/6
f 27/59/6 29/60/6 25/61/6 26/62/6
f 39/63/8 35/64/8 36/65/8 40/66/8
f 39/67/5 38/68/5 34/69/5 35/70/5
f 36/71/4 35/72/4 37/73/4
f 35/74/4 34/75/4 33/76/4 37/77/4
f 32/78/8 31/79/8 39/63/8 40/66/8
f 30/80/5 38/81/5 39/82/5 31/83/5
f 41/84/4 42/85/4 44/86/4 43/87/4
f 43/88/5 44/89/5 48/90/5 47/91/5
f 47/91/6 48/90/6 46/92/6 45/93/6
f 45/94/1 46/95/1 42/85/1 41/84/1
f 48/90/3 44/89/3 42/96/3 46/97/3
f 51/98/6 49/99/6 54/100/6 50/101/6
f 57/102/6 59/103/6 60/104/6 58/105/6
f 59/106/5 63/107/5 64/108/5 60/109/5
f 63/107/4 61/110/4 62/111/4 64/108/4
f 61/112/1 57/102/1 58/105/1 62/113/1
f 64/108/3 62/114/3 58/115/3 60/109/3
f 54/116/9 67/117/9 68/118/9 50/119/9
f 67/117/9 56/120/9 55/121/9 68/118/9
f 55/122/5 52/123/5 66/124/5 68/125/5
f 68/125/5 66/124/5 51/126/5 50/127/5
f 49/128/1 65/129/1 67/130/1 54/131/1
f 65/129/1 53/132/1 56/133/1 67/130/1
f 51/134/3 66/135/3 65/129/3 49/128/3
f 52/136/4 55/137/4 56/138/4 53/139/4
f 66/135/3 52/140/3 53/132/3 65/129/3
usemtl DECO
f 73/141/10 71/142/10 69/143/10
f 75/144/11 73/145/11 69/146/11
f 77/147/12 75/144/12 69/146/12
f 71/142/13 77/148/13 69/143/13
f 72/149/1 70/150/1 71/151/1 73/152/1
f 76/153/5 74/154/5 75/155/5 77/156/5
f 74/154/4 72/157/4 73/158/4 75/155/4
f 70/150/6 76/159/6 77/160/6 71/151/6
f 85/161/6 79/162/6 78/163/6 84/164/6
f 81/165/4 83/166/4 82/167/4 80/168/4
f 79/169/5 81/165/5 80/168/5 78/170/5
f 83/171/1 85/161/1 84/164/1 82/172/1
f 84/173/13 78/174/13 86/175/13
f 78/176/12 80/177/12 86/178/12
f 80/177/11 82/179/11 86/178/11
f 82/180/10 84/173/10 86/175/10
